<mxfile host="app.diagrams.net" agent="Mozilla/5.0 (X11; Ubuntu; Linux x86_64; rv:126.0) Gecko/20100101 Firefox/126.0" version="26.0.9">
  <diagram name="PÃ¡gina-1" id="Q4VgW65nHnnaz7NwZB-u">
    <mxGraphModel dx="2512" dy="853" grid="1" gridSize="10" guides="1" tooltips="1" connect="1" arrows="1" fold="1" page="1" pageScale="1" pageWidth="827" pageHeight="1169" math="0" shadow="0">
      <root>
        <mxCell id="0" />
        <mxCell id="1" parent="0" />
        <mxCell id="u360cqK-RKr2Ww8NjMrk-1" value="Playlist" style="swimlane;childLayout=stackLayout;horizontal=1;startSize=50;horizontalStack=0;rounded=1;fontSize=14;fontStyle=0;strokeWidth=2;resizeParent=0;resizeLast=1;shadow=0;dashed=0;align=center;arcSize=4;whiteSpace=wrap;html=1;" vertex="1" parent="1">
          <mxGeometry x="250" y="300" width="170" height="160" as="geometry" />
        </mxCell>
        <mxCell id="u360cqK-RKr2Ww8NjMrk-2" value="&lt;div&gt;id: int&lt;/div&gt;&lt;div&gt;nombre: string&lt;/div&gt;&lt;div&gt;visibilidad: string&lt;/div&gt;&lt;div&gt;propietario: Usuario&lt;/div&gt;&lt;div&gt;reproducciones: int&lt;/div&gt;&lt;div&gt;likes: int&lt;br&gt;&lt;/div&gt;" style="align=left;strokeColor=none;fillColor=none;spacingLeft=4;fontSize=12;verticalAlign=top;resizable=0;rotatable=0;part=1;html=1;" vertex="1" parent="u360cqK-RKr2Ww8NjMrk-1">
          <mxGeometry y="50" width="170" height="110" as="geometry" />
        </mxCell>
        <mxCell id="u360cqK-RKr2Ww8NjMrk-3" value="Perfil" style="swimlane;childLayout=stackLayout;horizontal=1;startSize=50;horizontalStack=0;rounded=1;fontSize=14;fontStyle=0;strokeWidth=2;resizeParent=0;resizeLast=1;shadow=0;dashed=0;align=center;arcSize=4;whiteSpace=wrap;html=1;" vertex="1" parent="1">
          <mxGeometry x="520" y="530" width="200" height="140" as="geometry" />
        </mxCell>
        <mxCell id="u360cqK-RKr2Ww8NjMrk-4" value="+id: int&lt;br&gt;+foto: string&lt;br&gt;&lt;div&gt;+descripcion: string&lt;/div&gt;&lt;div&gt;+EstiloMusicalPreferido: Estilo&lt;/div&gt;" style="align=left;strokeColor=none;fillColor=none;spacingLeft=4;fontSize=12;verticalAlign=top;resizable=0;rotatable=0;part=1;html=1;" vertex="1" parent="u360cqK-RKr2Ww8NjMrk-3">
          <mxGeometry y="50" width="200" height="90" as="geometry" />
        </mxCell>
        <mxCell id="u360cqK-RKr2Ww8NjMrk-5" value="UsuarioPlaylist" style="swimlane;childLayout=stackLayout;horizontal=1;startSize=50;horizontalStack=0;rounded=1;fontSize=14;fontStyle=0;strokeWidth=2;resizeParent=0;resizeLast=1;shadow=0;dashed=0;align=center;arcSize=4;whiteSpace=wrap;html=1;" vertex="1" parent="1">
          <mxGeometry x="460" y="20" width="160" height="120" as="geometry" />
        </mxCell>
        <mxCell id="u360cqK-RKr2Ww8NjMrk-6" value="&lt;div&gt;id: int&lt;/div&gt;&lt;div&gt;usuario: Usuario&lt;/div&gt;&lt;div&gt;playlist: Playlist&lt;/div&gt;&lt;div&gt;reproducida: int&lt;br&gt;&lt;/div&gt;" style="align=left;strokeColor=none;fillColor=none;spacingLeft=4;fontSize=12;verticalAlign=top;resizable=0;rotatable=0;part=1;html=1;" vertex="1" parent="u360cqK-RKr2Ww8NjMrk-5">
          <mxGeometry y="50" width="160" height="70" as="geometry" />
        </mxCell>
        <mxCell id="u360cqK-RKr2Ww8NjMrk-7" value="Cancion" style="swimlane;childLayout=stackLayout;horizontal=1;startSize=50;horizontalStack=0;rounded=1;fontSize=14;fontStyle=0;strokeWidth=2;resizeParent=0;resizeLast=1;shadow=0;dashed=0;align=center;arcSize=4;whiteSpace=wrap;html=1;" vertex="1" parent="1">
          <mxGeometry x="-70" y="300" width="150" height="190" as="geometry" />
        </mxCell>
        <mxCell id="u360cqK-RKr2Ww8NjMrk-8" value="&lt;div&gt;id: int&lt;/div&gt;&lt;div&gt;titulo: string&lt;/div&gt;&lt;div&gt;duracion: int&lt;/div&gt;&lt;div&gt;album: string&lt;/div&gt;&lt;div&gt;autor: string&lt;/div&gt;&lt;div&gt;genero: Estilo&lt;/div&gt;&lt;div&gt;reproducciones: int&lt;/div&gt;&lt;div&gt;likes: int&lt;br&gt;&lt;/div&gt;" style="align=left;strokeColor=none;fillColor=none;spacingLeft=4;fontSize=12;verticalAlign=top;resizable=0;rotatable=0;part=1;html=1;" vertex="1" parent="u360cqK-RKr2Ww8NjMrk-7">
          <mxGeometry y="50" width="150" height="140" as="geometry" />
        </mxCell>
        <mxCell id="u360cqK-RKr2Ww8NjMrk-9" value="Usuario" style="swimlane;childLayout=stackLayout;horizontal=1;startSize=50;horizontalStack=0;rounded=1;fontSize=14;fontStyle=0;strokeWidth=2;resizeParent=0;resizeLast=1;shadow=0;dashed=0;align=center;arcSize=4;whiteSpace=wrap;html=1;" vertex="1" parent="1">
          <mxGeometry x="610" y="240" width="186" height="160" as="geometry" />
        </mxCell>
        <mxCell id="u360cqK-RKr2Ww8NjMrk-10" value="&lt;div&gt;id: int&lt;/div&gt;&lt;div&gt;nombre: string&lt;/div&gt;&lt;div&gt;email: string&lt;/div&gt;&lt;div&gt;password: string&lt;/div&gt;&lt;div&gt;fechaNacimiento: date&lt;/div&gt;&lt;div&gt;perfil: Perfil&lt;br&gt;&lt;/div&gt;&lt;div&gt;&lt;br&gt;&lt;/div&gt;" style="align=left;strokeColor=none;fillColor=none;spacingLeft=4;fontSize=12;verticalAlign=top;resizable=0;rotatable=0;part=1;html=1;" vertex="1" parent="u360cqK-RKr2Ww8NjMrk-9">
          <mxGeometry y="50" width="186" height="110" as="geometry" />
        </mxCell>
        <mxCell id="u360cqK-RKr2Ww8NjMrk-11" value="Estilo" style="swimlane;childLayout=stackLayout;horizontal=1;startSize=50;horizontalStack=0;rounded=1;fontSize=14;fontStyle=0;strokeWidth=2;resizeParent=0;resizeLast=1;shadow=0;dashed=0;align=center;arcSize=4;whiteSpace=wrap;html=1;" vertex="1" parent="1">
          <mxGeometry x="230" y="650" width="160" height="120" as="geometry" />
        </mxCell>
        <mxCell id="u360cqK-RKr2Ww8NjMrk-12" value="Id: int&lt;br&gt;Nombre: string&lt;br&gt;Descripcion: string" style="align=left;strokeColor=none;fillColor=none;spacingLeft=4;fontSize=12;verticalAlign=top;resizable=0;rotatable=0;part=1;html=1;" vertex="1" parent="u360cqK-RKr2Ww8NjMrk-11">
          <mxGeometry y="50" width="160" height="70" as="geometry" />
        </mxCell>
        <mxCell id="u360cqK-RKr2Ww8NjMrk-13" value="PlaylistCancion" style="swimlane;childLayout=stackLayout;horizontal=1;startSize=50;horizontalStack=0;rounded=1;fontSize=14;fontStyle=0;strokeWidth=2;resizeParent=0;resizeLast=1;shadow=0;dashed=0;align=center;arcSize=4;whiteSpace=wrap;html=1;" vertex="1" parent="1">
          <mxGeometry x="60" y="20" width="160" height="120" as="geometry" />
        </mxCell>
        <mxCell id="u360cqK-RKr2Ww8NjMrk-14" value="&lt;div&gt;id: int&lt;/div&gt;&lt;div&gt;playlist: Playlist&lt;/div&gt;&lt;div&gt;cancion: Cancion&lt;br&gt;&lt;/div&gt;" style="align=left;strokeColor=none;fillColor=none;spacingLeft=4;fontSize=12;verticalAlign=top;resizable=0;rotatable=0;part=1;html=1;" vertex="1" parent="u360cqK-RKr2Ww8NjMrk-13">
          <mxGeometry y="50" width="160" height="70" as="geometry" />
        </mxCell>
        <mxCell id="u360cqK-RKr2Ww8NjMrk-23" value="" style="endArrow=none;html=1;rounded=0;exitX=0.5;exitY=1;exitDx=0;exitDy=0;entryX=-0.019;entryY=0.383;entryDx=0;entryDy=0;entryPerimeter=0;" edge="1" parent="1" source="u360cqK-RKr2Ww8NjMrk-8" target="u360cqK-RKr2Ww8NjMrk-11">
          <mxGeometry relative="1" as="geometry">
            <mxPoint x="40" y="550" as="sourcePoint" />
            <mxPoint x="200" y="550" as="targetPoint" />
          </mxGeometry>
        </mxCell>
        <mxCell id="u360cqK-RKr2Ww8NjMrk-27" value="&lt;font style=&quot;font-size: 16px;&quot;&gt;1&lt;/font&gt;" style="text;html=1;align=center;verticalAlign=middle;resizable=0;points=[];autosize=1;strokeColor=none;fillColor=none;" vertex="1" parent="1">
          <mxGeometry x="195" y="638" width="30" height="30" as="geometry" />
        </mxCell>
        <mxCell id="u360cqK-RKr2Ww8NjMrk-28" value="&lt;font style=&quot;font-size: 30px;&quot;&gt;*&lt;/font&gt;" style="text;html=1;align=center;verticalAlign=middle;resizable=0;points=[];autosize=1;strokeColor=none;fillColor=none;" vertex="1" parent="1">
          <mxGeometry x="30" y="490" width="40" height="50" as="geometry" />
        </mxCell>
        <mxCell id="u360cqK-RKr2Ww8NjMrk-29" value="&lt;font style=&quot;font-size: 30px;&quot;&gt;*&lt;/font&gt;" style="text;html=1;align=center;verticalAlign=middle;resizable=0;points=[];autosize=1;strokeColor=none;fillColor=none;" vertex="1" parent="1">
          <mxGeometry x="-300" y="270" width="40" height="50" as="geometry" />
        </mxCell>
        <mxCell id="u360cqK-RKr2Ww8NjMrk-30" value="&lt;font style=&quot;font-size: 16px;&quot;&gt;1&lt;/font&gt;" style="text;html=1;align=center;verticalAlign=middle;resizable=0;points=[];autosize=1;strokeColor=none;fillColor=none;" vertex="1" parent="1">
          <mxGeometry x="-300" y="305" width="30" height="30" as="geometry" />
        </mxCell>
        <mxCell id="u360cqK-RKr2Ww8NjMrk-31" value="" style="endArrow=none;html=1;rounded=0;exitX=0.988;exitY=0.367;exitDx=0;exitDy=0;exitPerimeter=0;entryX=0;entryY=0;entryDx=0;entryDy=0;" edge="1" parent="1" source="u360cqK-RKr2Ww8NjMrk-11" target="u360cqK-RKr2Ww8NjMrk-4">
          <mxGeometry width="50" height="50" relative="1" as="geometry">
            <mxPoint x="450" y="440" as="sourcePoint" />
            <mxPoint x="500" y="390" as="targetPoint" />
          </mxGeometry>
        </mxCell>
        <mxCell id="u360cqK-RKr2Ww8NjMrk-32" value="N" style="text;html=1;align=center;verticalAlign=middle;resizable=0;points=[];autosize=1;strokeColor=none;fillColor=none;" vertex="1" parent="1">
          <mxGeometry x="390" y="630" width="30" height="30" as="geometry" />
        </mxCell>
        <mxCell id="u360cqK-RKr2Ww8NjMrk-33" value="M" style="text;html=1;align=center;verticalAlign=middle;resizable=0;points=[];autosize=1;strokeColor=none;fillColor=none;" vertex="1" parent="1">
          <mxGeometry x="480" y="555" width="30" height="30" as="geometry" />
        </mxCell>
        <mxCell id="u360cqK-RKr2Ww8NjMrk-34" value="&lt;font style=&quot;font-size: 16px;&quot;&gt;N:M&lt;/font&gt;" style="text;html=1;align=center;verticalAlign=middle;resizable=0;points=[];autosize=1;strokeColor=none;fillColor=none;" vertex="1" parent="1">
          <mxGeometry x="410" y="580" width="50" height="30" as="geometry" />
        </mxCell>
        <mxCell id="u360cqK-RKr2Ww8NjMrk-35" value="&lt;font style=&quot;font-size: 22px;&quot;&gt;1 : *&lt;/font&gt;" style="text;html=1;align=center;verticalAlign=middle;resizable=0;points=[];autosize=1;strokeColor=none;fillColor=none;" vertex="1" parent="1">
          <mxGeometry x="110" y="545" width="60" height="40" as="geometry" />
        </mxCell>
        <mxCell id="u360cqK-RKr2Ww8NjMrk-36" value="" style="endArrow=none;html=1;rounded=0;exitX=0.5;exitY=0;exitDx=0;exitDy=0;entryX=0.307;entryY=0.949;entryDx=0;entryDy=0;entryPerimeter=0;" edge="1" parent="1" source="u360cqK-RKr2Ww8NjMrk-7" target="u360cqK-RKr2Ww8NjMrk-14">
          <mxGeometry width="50" height="50" relative="1" as="geometry">
            <mxPoint x="450" y="440" as="sourcePoint" />
            <mxPoint x="500" y="390" as="targetPoint" />
          </mxGeometry>
        </mxCell>
        <mxCell id="u360cqK-RKr2Ww8NjMrk-37" value="&lt;font style=&quot;font-size: 16px;&quot;&gt;1&lt;/font&gt;" style="text;html=1;align=center;verticalAlign=middle;resizable=0;points=[];autosize=1;strokeColor=none;fillColor=none;" vertex="1" parent="1">
          <mxGeometry x="-20" y="260" width="30" height="30" as="geometry" />
        </mxCell>
        <mxCell id="u360cqK-RKr2Ww8NjMrk-38" value="&lt;font style=&quot;font-size: 30px;&quot;&gt;*&lt;/font&gt;" style="text;html=1;align=center;verticalAlign=middle;resizable=0;points=[];autosize=1;strokeColor=none;fillColor=none;" vertex="1" parent="1">
          <mxGeometry x="60" y="147.69" width="40" height="50" as="geometry" />
        </mxCell>
        <mxCell id="u360cqK-RKr2Ww8NjMrk-39" value="" style="endArrow=none;html=1;rounded=0;entryX=0.675;entryY=1.033;entryDx=0;entryDy=0;entryPerimeter=0;exitX=0.134;exitY=-0.008;exitDx=0;exitDy=0;exitPerimeter=0;" edge="1" parent="1">
          <mxGeometry width="50" height="50" relative="1" as="geometry">
            <mxPoint x="262.38999999999976" y="296.41" as="sourcePoint" />
            <mxPoint x="157.61" y="139.99999999999994" as="targetPoint" />
          </mxGeometry>
        </mxCell>
        <mxCell id="u360cqK-RKr2Ww8NjMrk-40" value="&lt;font style=&quot;font-size: 16px;&quot;&gt;1&lt;/font&gt;" style="text;html=1;align=center;verticalAlign=middle;resizable=0;points=[];autosize=1;strokeColor=none;fillColor=none;" vertex="1" parent="1">
          <mxGeometry x="260" y="260" width="30" height="30" as="geometry" />
        </mxCell>
        <mxCell id="u360cqK-RKr2Ww8NjMrk-41" value="&lt;font style=&quot;font-size: 30px;&quot;&gt;*&lt;/font&gt;" style="text;html=1;align=center;verticalAlign=middle;resizable=0;points=[];autosize=1;strokeColor=none;fillColor=none;" vertex="1" parent="1">
          <mxGeometry x="184.61" y="147.69" width="40" height="50" as="geometry" />
        </mxCell>
        <mxCell id="u360cqK-RKr2Ww8NjMrk-42" value="" style="endArrow=none;html=1;rounded=0;entryX=0.447;entryY=1.016;entryDx=0;entryDy=0;entryPerimeter=0;exitX=0.694;exitY=0.014;exitDx=0;exitDy=0;exitPerimeter=0;" edge="1" parent="1" source="u360cqK-RKr2Ww8NjMrk-1" target="u360cqK-RKr2Ww8NjMrk-6">
          <mxGeometry width="50" height="50" relative="1" as="geometry">
            <mxPoint x="360" y="290" as="sourcePoint" />
            <mxPoint x="500" y="390" as="targetPoint" />
          </mxGeometry>
        </mxCell>
        <mxCell id="u360cqK-RKr2Ww8NjMrk-43" value="&lt;font style=&quot;font-size: 30px;&quot;&gt;*&lt;/font&gt;" style="text;html=1;align=center;verticalAlign=middle;resizable=0;points=[];autosize=1;strokeColor=none;fillColor=none;" vertex="1" parent="1">
          <mxGeometry x="460" y="140" width="40" height="50" as="geometry" />
        </mxCell>
        <mxCell id="u360cqK-RKr2Ww8NjMrk-44" value="&lt;font style=&quot;font-size: 16px;&quot;&gt;1&lt;/font&gt;" style="text;html=1;align=center;verticalAlign=middle;resizable=0;points=[];autosize=1;strokeColor=none;fillColor=none;" vertex="1" parent="1">
          <mxGeometry x="370" y="250" width="30" height="30" as="geometry" />
        </mxCell>
        <mxCell id="u360cqK-RKr2Ww8NjMrk-45" value="&lt;font style=&quot;font-size: 30px;&quot;&gt;*&lt;/font&gt;" style="text;html=1;align=center;verticalAlign=middle;resizable=0;points=[];autosize=1;strokeColor=none;fillColor=none;" vertex="1" parent="1">
          <mxGeometry x="620" y="140" width="40" height="50" as="geometry" />
        </mxCell>
        <mxCell id="u360cqK-RKr2Ww8NjMrk-46" value="" style="endArrow=none;html=1;rounded=0;entryX=0.925;entryY=1.05;entryDx=0;entryDy=0;entryPerimeter=0;exitX=0.5;exitY=0;exitDx=0;exitDy=0;" edge="1" parent="1" source="u360cqK-RKr2Ww8NjMrk-9" target="u360cqK-RKr2Ww8NjMrk-6">
          <mxGeometry width="50" height="50" relative="1" as="geometry">
            <mxPoint x="378" y="312" as="sourcePoint" />
            <mxPoint x="542" y="151" as="targetPoint" />
          </mxGeometry>
        </mxCell>
        <mxCell id="u360cqK-RKr2Ww8NjMrk-47" value="" style="endArrow=none;html=1;rounded=0;exitX=0.5;exitY=0;exitDx=0;exitDy=0;entryX=0.5;entryY=1;entryDx=0;entryDy=0;" edge="1" parent="1" source="u360cqK-RKr2Ww8NjMrk-3" target="u360cqK-RKr2Ww8NjMrk-10">
          <mxGeometry width="50" height="50" relative="1" as="geometry">
            <mxPoint x="450" y="440" as="sourcePoint" />
            <mxPoint x="500" y="390" as="targetPoint" />
          </mxGeometry>
        </mxCell>
        <mxCell id="u360cqK-RKr2Ww8NjMrk-49" value="&lt;font style=&quot;font-size: 16px;&quot;&gt;1&lt;/font&gt;" style="text;html=1;align=center;verticalAlign=middle;resizable=0;points=[];autosize=1;strokeColor=none;fillColor=none;" vertex="1" parent="1">
          <mxGeometry x="690" y="210" width="30" height="30" as="geometry" />
        </mxCell>
        <mxCell id="u360cqK-RKr2Ww8NjMrk-50" value="&lt;font style=&quot;font-size: 16px;&quot;&gt;1&lt;/font&gt;" style="text;html=1;align=center;verticalAlign=middle;resizable=0;points=[];autosize=1;strokeColor=none;fillColor=none;" vertex="1" parent="1">
          <mxGeometry x="700" y="400" width="30" height="30" as="geometry" />
        </mxCell>
        <mxCell id="u360cqK-RKr2Ww8NjMrk-51" value="&lt;font style=&quot;font-size: 16px;&quot;&gt;1&lt;/font&gt;" style="text;html=1;align=center;verticalAlign=middle;resizable=0;points=[];autosize=1;strokeColor=none;fillColor=none;" vertex="1" parent="1">
          <mxGeometry x="640" y="490" width="30" height="30" as="geometry" />
        </mxCell>
        <mxCell id="u360cqK-RKr2Ww8NjMrk-52" value="&lt;font style=&quot;font-size: 16px;&quot;&gt;1&lt;/font&gt;" style="text;html=1;align=center;verticalAlign=middle;resizable=0;points=[];autosize=1;strokeColor=none;fillColor=none;" vertex="1" parent="1">
          <mxGeometry x="580" y="335" width="30" height="30" as="geometry" />
        </mxCell>
        <mxCell id="u360cqK-RKr2Ww8NjMrk-53" value="" style="endArrow=none;html=1;rounded=0;exitX=1.012;exitY=0.144;exitDx=0;exitDy=0;entryX=0.002;entryY=0.336;entryDx=0;entryDy=0;exitPerimeter=0;entryPerimeter=0;" edge="1" parent="1" source="u360cqK-RKr2Ww8NjMrk-2" target="u360cqK-RKr2Ww8NjMrk-10">
          <mxGeometry width="50" height="50" relative="1" as="geometry">
            <mxPoint x="630" y="540" as="sourcePoint" />
            <mxPoint x="713" y="410" as="targetPoint" />
          </mxGeometry>
        </mxCell>
        <mxCell id="u360cqK-RKr2Ww8NjMrk-54" value="&lt;font style=&quot;font-size: 30px;&quot;&gt;*&lt;/font&gt;" style="text;html=1;align=center;verticalAlign=middle;resizable=0;points=[];autosize=1;strokeColor=none;fillColor=none;" vertex="1" parent="1">
          <mxGeometry x="415" y="370" width="40" height="50" as="geometry" />
        </mxCell>
        <mxCell id="u360cqK-RKr2Ww8NjMrk-56" value="&lt;font style=&quot;font-size: 22px;&quot;&gt;1 : 1&lt;/font&gt;" style="text;html=1;align=center;verticalAlign=middle;resizable=0;points=[];autosize=1;strokeColor=none;fillColor=none;" vertex="1" parent="1">
          <mxGeometry x="668" y="440" width="70" height="40" as="geometry" />
        </mxCell>
        <mxCell id="u360cqK-RKr2Ww8NjMrk-57" value="&lt;font style=&quot;font-size: 22px;&quot;&gt;1 : *&lt;/font&gt;" style="text;html=1;align=center;verticalAlign=middle;resizable=0;points=[];autosize=1;strokeColor=none;fillColor=none;" vertex="1" parent="1">
          <mxGeometry x="480" y="300" width="60" height="40" as="geometry" />
        </mxCell>
        <mxCell id="u360cqK-RKr2Ww8NjMrk-58" value="&lt;font style=&quot;font-size: 22px;&quot;&gt;1 : *&lt;/font&gt;" style="text;html=1;align=center;verticalAlign=middle;resizable=0;points=[];autosize=1;strokeColor=none;fillColor=none;" vertex="1" parent="1">
          <mxGeometry x="390" y="190" width="60" height="40" as="geometry" />
        </mxCell>
        <mxCell id="u360cqK-RKr2Ww8NjMrk-59" value="&lt;font style=&quot;font-size: 22px;&quot;&gt;1 : *&lt;/font&gt;" style="text;html=1;align=center;verticalAlign=middle;resizable=0;points=[];autosize=1;strokeColor=none;fillColor=none;" vertex="1" parent="1">
          <mxGeometry x="210" y="190" width="60" height="40" as="geometry" />
        </mxCell>
        <mxCell id="u360cqK-RKr2Ww8NjMrk-60" value="&lt;font style=&quot;font-size: 22px;&quot;&gt;1 : *&lt;/font&gt;" style="text;html=1;align=center;verticalAlign=middle;resizable=0;points=[];autosize=1;strokeColor=none;fillColor=none;" vertex="1" parent="1">
          <mxGeometry x="-10" y="190" width="60" height="40" as="geometry" />
        </mxCell>
        <mxCell id="u360cqK-RKr2Ww8NjMrk-61" value="&lt;font style=&quot;font-size: 22px;&quot;&gt;1 : *&lt;/font&gt;" style="text;html=1;align=center;verticalAlign=middle;resizable=0;points=[];autosize=1;strokeColor=none;fillColor=none;" vertex="1" parent="1">
          <mxGeometry x="660" y="157.69" width="60" height="40" as="geometry" />
        </mxCell>
      </root>
    </mxGraphModel>
  </diagram>
</mxfile>
